<?xml version="1.0" encoding="UTF-8" standalone="no"?>
<!-- Uploaded to: SVG Repo, www.svgrepo.com, Generator: SVG Repo Mixer Tools -->

<svg
   version="1.1"
   id="Layer_1"
   viewBox="0 0 501.333 501.333"
   xml:space="preserve"
   sodipodi:docname="app_compas.svg"
   inkscape:version="1.3.1 (9b9bdc1480, 2023-11-25, custom)"
   xmlns:inkscape="http://www.inkscape.org/namespaces/inkscape"
   xmlns:sodipodi="http://sodipodi.sourceforge.net/DTD/sodipodi-0.dtd"
   xmlns="http://www.w3.org/2000/svg"
   xmlns:svg="http://www.w3.org/2000/svg"><defs
   id="defs7" /><sodipodi:namedview
   id="namedview7"
   pagecolor="#ffffff"
   bordercolor="#000000"
   borderopacity="0.25"
   inkscape:showpageshadow="2"
   inkscape:pageopacity="0.0"
   inkscape:pagecheckerboard="0"
   inkscape:deskcolor="#d1d1d1"
   inkscape:zoom="0.31523631"
   inkscape:cx="250.60565"
   inkscape:cy="209.36675"
   inkscape:window-width="1846"
   inkscape:window-height="1136"
   inkscape:window-x="0"
   inkscape:window-y="0"
   inkscape:window-maximized="1"
   inkscape:current-layer="Layer_1" />
<rect
   style="fill:#008000;fill-opacity:1;stroke:#008000;stroke-width:0"
   id="rect7"
   width="503.36432"
   height="502.3761"
   x="-0.10532773"
   y="-0.17657885" /><g
   id="g3"
   style="fill:#ffffff">
	<path
   style="fill:#ffffff"
   d="M229.467,449.067c-65.067,0-126.933-25.6-172.8-71.467C46,366.933,35.333,354.133,26.8,342.4   l17.067-11.733c7.467,11.733,17.067,22.4,26.667,33.067c42.667,42.667,99.2,66.133,158.933,66.133S345.733,406.4,388.4,363.733   c87.467-87.467,87.467-230.4,0-317.867C377.733,35.2,366,25.6,353.2,17.067L364.933,0c13.867,9.6,26.667,19.2,38.4,32   c94.933,94.933,94.933,250.667,0,346.667C356.4,423.467,295.6,449.067,229.467,449.067z"
   id="path1" />
	
		<rect
   x="373.245"
   y="32.122"
   transform="matrix(-0.7071 -0.7071 0.7071 -0.7071 618.1768 358.701)"
   style="fill:#ffffff"
   width="20.266"
   height="38.4"
   id="rect1" />
	
		<rect
   x="66.066"
   y="339.301"
   transform="matrix(-0.7071 -0.7071 0.7071 -0.7071 -123.4174 665.8799)"
   style="fill:#ffffff"
   width="20.266"
   height="38.4"
   id="rect2" />
	<rect
   x="219.867"
   y="439.467"
   style="fill:#ffffff"
   width="20.267"
   height="52.267"
   id="rect3" />
</g>


<path
   style="fill:#ffffff"
   d="M348.933,501.333c-23.467-20.267-68.267-33.067-118.4-33.067c-51.2,0-94.933,13.867-118.4,33.067  H348.933z"
   id="path7" />
<g
   id="icons_Q2"
   data-name="icons Q2"
   transform="matrix(11.384356,0,0,12.44335,-38.473084,-91.664763)"
   style="fill:#ffffff"><path
     d="M 46,24 C -8.7914602,-6.6208922 -8.7914602,-6.6208922 46,24 Z"
     id="path1-6"
     style="fill:#ffffff"
     sodipodi:nodetypes="cc" /><path
     d="M 33.3,13.3 20,20 13.3,33.3 a 1.1,1.1 0 0 0 1.4,1.4 L 28,28 34.7,14.7 A 1.1,1.1 0 0 0 33.3,13.3 Z M 24,26 a 2,2 0 1 1 2,-2 2,2 0 0 1 -2,2 z"
     id="path2"
     style="fill:#ffffff" /></g></svg>
