<?xml version="1.0" encoding="UTF-8" standalone="no"?>
<!-- Uploaded to: SVG Repo, www.svgrepo.com, Generator: SVG Repo Mixer Tools -->

<svg
   version="1.1"
   id="Layer_1"
   viewBox="0 0 511.993 511.993"
   xml:space="preserve"
   sodipodi:docname="gpx_recorder_appicon.svg"
   inkscape:version="1.3.1 (9b9bdc1480, 2023-11-25, custom)"
   xmlns:inkscape="http://www.inkscape.org/namespaces/inkscape"
   xmlns:sodipodi="http://sodipodi.sourceforge.net/DTD/sodipodi-0.dtd"
   xmlns="http://www.w3.org/2000/svg"
   xmlns:svg="http://www.w3.org/2000/svg"
   xmlns:rdf="http://www.w3.org/1999/02/22-rdf-syntax-ns#"
   xmlns:cc="http://creativecommons.org/ns#"
   xmlns:dc="http://purl.org/dc/elements/1.1/"><metadata
   id="metadata27"><rdf:RDF><cc:Work
       rdf:about=""><dc:format>image/svg+xml</dc:format><dc:type
         rdf:resource="http://purl.org/dc/dcmitype/StillImage" /><dc:title /></cc:Work></rdf:RDF></metadata><defs
   id="defs25" /><sodipodi:namedview
   pagecolor="#ffffff"
   bordercolor="#666666"
   borderopacity="1"
   objecttolerance="10"
   gridtolerance="10"
   guidetolerance="10"
   inkscape:pageopacity="0"
   inkscape:pageshadow="2"
   inkscape:window-width="1846"
   inkscape:window-height="1136"
   id="namedview23"
   showgrid="false"
   inkscape:zoom="1.3037459"
   inkscape:cx="256.18489"
   inkscape:cy="256.18489"
   inkscape:window-x="0"
   inkscape:window-y="0"
   inkscape:window-maximized="1"
   inkscape:current-layer="Layer_1"
   inkscape:showpageshadow="2"
   inkscape:pagecheckerboard="0"
   inkscape:deskcolor="#d1d1d1" />


<path
   style="fill:#5d9cec;stroke-width:1.29730797"
   d="m 502.02409,257.15721 c 0,138.71438 -110.01336,251.15719 -245.73355,251.15719 C 120.57163,508.3144 10.556995,395.87291 10.556995,257.15721 10.556995,118.44281 120.57163,6 256.29054,6 392.00945,6 502.02409,118.44413 502.02409,257.15721 Z"
   id="path10"
   inkscape:connector-curvature="0" />
<g
   id="g16"
   transform="matrix(1.283224,0,0,1.3115464,-40.313664,0)">
	<path
   style="fill:#a0d468"
   d="m 388.91,171.17 c -37.701,2.867 -49.795,-19.234 -44.826,-25.984 8.594,-11.695 49.498,16.719 52.201,-4.336 0.484,-3.695 9.734,-13.335 17.875,-15.132 C 395.598,74.985 356.193,34.306 306.319,14.032 c -1.703,5.742 -3.203,10.484 -4.031,10.891 -28.75,13.977 -62.718,20.468 -83.109,47.335 -2.859,3.773 -6.641,10.898 -2.547,15.398 5.062,5.578 18.594,-0.156 25.234,0.328 18.468,1.328 70.546,13.453 72.234,21.89 1.688,8.429 -19.766,24.39 -40.734,12.82 -6.172,-3.406 -30.828,-7.648 -39.203,-9.156 -5.859,-1.047 -56.405,5.296 -54.155,65.39 0.906,24.374 16.156,40.053 40.733,40.334 20.391,0.234 41.031,-2.148 47.703,21.984 5.656,20.453 3.5,41.625 8.547,61.984 2.031,8.188 6.359,19.688 16.734,20.578 15.734,1.359 26.312,-9.219 35.765,-20.188 7.531,-8.766 17.047,-16.375 22.672,-26.625 8.905,-16.273 6.453,-35.648 15.874,-51.945 7.593,-13.147 32.796,-54.794 20.874,-53.88 z"
   id="path12"
   inkscape:connector-curvature="0" />
	<path
   style="fill:#a0d468"
   d="m 104.212,228.801 c -6,-8.711 -12.875,-17.148 -19.03,-25.742 -5.75,-8.007 -28.172,-44.413 -38.562,-50.007 -2.531,12.422 -3.859,25.273 -3.859,38.445 0,46.608 16.656,89.327 44.328,122.53 0.703,0.859 17.343,-11.5 18.812,-12.75 6.141,-5.219 11.281,-11.594 13.594,-19.422 5.358,-18.257 -5.189,-38.374 -15.283,-53.054 z"
   id="path14"
   inkscape:connector-curvature="0" />
</g>
<g
   style="opacity:0.2"
   id="g20"
   transform="matrix(1.283224,0,0,1.3115464,-40.313664,0)">
	<path
   style="fill:#ffffff"
   d="m 234.257,0 c -3.594,0 -7.141,0.102 -10.688,0.297 100.795,5.547 180.825,89.022 180.825,191.2 0,102.186 -80.029,185.653 -180.825,191.2 3.547,0.203 7.094,0.297 10.688,0.297 105.764,0 191.497,-85.732 191.497,-191.497 C 425.754,85.734 340.021,0 234.257,0 Z"
   id="path18"
   inkscape:connector-curvature="0" />
</g>
<g
   transform="matrix(1.3203576,0,0,1.1784834,-204.07596,-55.182514)"
   id="g843"
   style="fill:#c83737"><g
     id="g6"
     transform="translate(569.28103,-16.900917)"
     style="fill:#c83737"><circle
       id="circle2"
       r="20.799999"
       cy="177.10001"
       cx="-227"
       style="fill:#c83737" /><path
       inkscape:connector-curvature="0"
       id="path4-7"
       d="m -150.7,385.3 -28,-39.9 -6,-47.1 c 0,-0.6 -0.1,-1.3 -0.2,-1.9 0,-0.2 -0.1,-0.5 -0.2,-0.7 l -11.5,-65.6 14.8,10.4 6.5,36.7 c 1,5.7 6.4,9.4 12.1,8.4 5.7,-1 9.4,-6.4 8.4,-12.1 l -7.3,-40.9 c -0.5,-2.8 -2.1,-5.2 -4.3,-6.7 l -25.5,-17.8 c -6.5,-5.1 -14.9,-7.7 -23.7,-6.4 l -17,3 c -10.4,2.3 -18.5,9.6 -22.2,18.9 l -9,24.6 -31.4,14.6 -4.9,-31.7 -3.5,0.5 5.1,32.8 c -4.5,2.7 -6.3,8.5 -4.1,13.3 1.4,3 4.1,5 7.1,5.7 l 18.8,121.6 3.5,-0.5 -18.6,-120.9 c 1,-0.1 2.1,-0.4 3.1,-0.9 l 37.7,-17.5 c 2.6,-1.2 4.5,-3.3 5.3,-5.9 l 8.1,-22.2 9.4,53 -27.6,44 c -1.1,1.5 -1.8,3.2 -2.1,5.2 l -9,51.1 c -1.3,7 3.5,13.8 10.6,15.1 7.1,1.3 13.8,-3.5 15.1,-10.6 l 8.4,-48 21.5,-27.6 7.6,33.2 c 0.3,1.8 1,3.6 2.1,5.2 l 29.8,42.5 c 4.2,5.9 12.2,7.3 18,3.2 5.8,-4.2 7.2,-12.2 3.1,-18.1 z"
       style="fill:#c83737" /></g></g></svg>
